<svg width="722" height="112"><g><g transform="translate(10, 20) translate(0, 0)"><rect width="10" height="10" x="14" y="0" fill="#ebedf0" class="day" data-count="0" data-date="2018-06-24"/><rect width="10" height="10" x="14" y="13" fill="#7bc96f" class="day" data-count="9" data-date="2018-06-25"/><rect width="10" height="10" x="14" y="26" fill="#ebedf0" class="day" data-count="0" data-date="2018-06-26"/><rect width="10" height="10" x="14" y="39" fill="#ebedf0" class="day" data-count="0" data-date="2018-06-27"/><rect width="10" height="10" x="14" y="52" fill="#c6e48b" class="day" data-count="2" data-date="2018-06-28"/><rect width="10" height="10" x="14" y="65" fill="#7bc96f" class="day" data-count="11" data-date="2018-06-29"/><rect width="10" height="10" x="14" y="78" fill="#ebedf0" class="day" data-count="0" data-date="2018-06-30"/></g><g transform="translate(10, 20) translate(14, 0)"><rect width="10" height="10" x="13" y="0" fill="#ebedf0" class="day" data-count="0" data-date="2018-07-01"/><rect width="10" height="10" x="13" y="13" fill="#ebedf0" class="day" data-count="0" data-date="2018-07-02"/><rect width="10" height="10" x="13" y="26" fill="#ebedf0" class="day" data-count="0" data-date="2018-07-03"/><rect width="10" height="10" x="13" y="39" fill="#ebedf0" class="day" data-count="0" data-date="2018-07-04"/><rect width="10" height="10" x="13" y="52" fill="#ebedf0" class="day" data-count="0" data-date="2018-07-05"/><rect width="10" height="10" x="13" y="65" fill="#ebedf0" class="day" data-count="0" data-date="2018-07-06"/><rect width="10" height="10" x="13" y="78" fill="#c6e48b" class="day" data-count="2" data-date="2018-07-07"/></g><g transform="translate(10, 20) translate(28, 0)"><rect width="10" height="10" x="12" y="0" fill="#ebedf0" class="day" data-count="0" data-date="2018-07-08"/><rect width="10" height="10" x="12" y="13" fill="#ebedf0" class="day" data-count="0" data-date="2018-07-09"/><rect width="10" height="10" x="12" y="26" fill="#ebedf0" class="day" data-count="0" data-date="2018-07-10"/><rect width="10" height="10" x="12" y="39" fill="#ebedf0" class="day" data-count="0" data-date="2018-07-11"/><rect width="10" height="10" x="12" y="52" fill="#c6e48b" class="day" data-count="3" data-date="2018-07-12"/><rect width="10" height="10" x="12" y="65" fill="#196127" class="day" data-count="24" data-date="2018-07-13"/><rect width="10" height="10" x="12" y="78" fill="#c6e48b" class="day" data-count="4" data-date="2018-07-14"/></g><g transform="translate(10, 20) translate(42, 0)"><rect width="10" height="10" x="11" y="0" fill="#ebedf0" class="day" data-count="0" data-date="2018-07-15"/><rect width="10" height="10" x="11" y="13" fill="#7bc96f" class="day" data-count="13" data-date="2018-07-16"/><rect width="10" height="10" x="11" y="26" fill="#7bc96f" class="day" data-count="8" data-date="2018-07-17"/><rect width="10" height="10" x="11" y="39" fill="#c6e48b" class="day" data-count="6" data-date="2018-07-18"/><rect width="10" height="10" x="11" y="52" fill="#7bc96f" class="day" data-count="8" data-date="2018-07-19"/><rect width="10" height="10" x="11" y="65" fill="#239a3b" class="day" data-count="17" data-date="2018-07-20"/><rect width="10" height="10" x="11" y="78" fill="#239a3b" class="day" data-count="20" data-date="2018-07-21"/></g><g transform="translate(10, 20) translate(56, 0)"><rect width="10" height="10" x="10" y="0" fill="#7bc96f" class="day" data-count="11" data-date="2018-07-22"/><rect width="10" height="10" x="10" y="13" fill="#ebedf0" class="day" data-count="0" data-date="2018-07-23"/><rect width="10" height="10" x="10" y="26" fill="#ebedf0" class="day" data-count="0" data-date="2018-07-24"/><rect width="10" height="10" x="10" y="39" fill="#239a3b" class="day" data-count="15" data-date="2018-07-25"/><rect width="10" height="10" x="10" y="52" fill="#c6e48b" class="day" data-count="2" data-date="2018-07-26"/><rect width="10" height="10" x="10" y="65" fill="#c6e48b" class="day" data-count="6" data-date="2018-07-27"/><rect width="10" height="10" x="10" y="78" fill="#c6e48b" class="day" data-count="2" data-date="2018-07-28"/></g><g transform="translate(10, 20) translate(70, 0)"><rect width="10" height="10" x="9" y="0" fill="#c6e48b" class="day" data-count="2" data-date="2018-07-29"/><rect width="10" height="10" x="9" y="13" fill="#c6e48b" class="day" data-count="1" data-date="2018-07-30"/><rect width="10" height="10" x="9" y="26" fill="#c6e48b" class="day" data-count="5" data-date="2018-07-31"/><rect width="10" height="10" x="9" y="39" fill="#7bc96f" class="day" data-count="10" data-date="2018-08-01"/><rect width="10" height="10" x="9" y="52" fill="#c6e48b" class="day" data-count="3" data-date="2018-08-02"/><rect width="10" height="10" x="9" y="65" fill="#ebedf0" class="day" data-count="0" data-date="2018-08-03"/><rect width="10" height="10" x="9" y="78" fill="#c6e48b" class="day" data-count="4" data-date="2018-08-04"/></g><g transform="translate(10, 20) translate(84, 0)"><rect width="10" height="10" x="8" y="0" fill="#ebedf0" class="day" data-count="0" data-date="2018-08-05"/><rect width="10" height="10" x="8" y="13" fill="#7bc96f" class="day" data-count="14" data-date="2018-08-06"/><rect width="10" height="10" x="8" y="26" fill="#c6e48b" class="day" data-count="2" data-date="2018-08-07"/><rect width="10" height="10" x="8" y="39" fill="#ebedf0" class="day" data-count="0" data-date="2018-08-08"/><rect width="10" height="10" x="8" y="52" fill="#ebedf0" class="day" data-count="0" data-date="2018-08-09"/><rect width="10" height="10" x="8" y="65" fill="#c6e48b" class="day" data-count="5" data-date="2018-08-10"/><rect width="10" height="10" x="8" y="78" fill="#7bc96f" class="day" data-count="8" data-date="2018-08-11"/></g><g transform="translate(10, 20) translate(98, 0)"><rect width="10" height="10" x="7" y="0" fill="#c6e48b" class="day" data-count="4" data-date="2018-08-12"/><rect width="10" height="10" x="7" y="13" fill="#c6e48b" class="day" data-count="2" data-date="2018-08-13"/><rect width="10" height="10" x="7" y="26" fill="#ebedf0" class="day" data-count="0" data-date="2018-08-14"/><rect width="10" height="10" x="7" y="39" fill="#ebedf0" class="day" data-count="0" data-date="2018-08-15"/><rect width="10" height="10" x="7" y="52" fill="#c6e48b" class="day" data-count="3" data-date="2018-08-16"/><rect width="10" height="10" x="7" y="65" fill="#ebedf0" class="day" data-count="0" data-date="2018-08-17"/><rect width="10" height="10" x="7" y="78" fill="#c6e48b" class="day" data-count="5" data-date="2018-08-18"/></g><g transform="translate(10, 20) translate(112, 0)"><rect width="10" height="10" x="6" y="0" fill="#c6e48b" class="day" data-count="7" data-date="2018-08-19"/><rect width="10" height="10" x="6" y="13" fill="#ebedf0" class="day" data-count="0" data-date="2018-08-20"/><rect width="10" height="10" x="6" y="26" fill="#c6e48b" class="day" data-count="4" data-date="2018-08-21"/><rect width="10" height="10" x="6" y="39" fill="#196127" class="day" data-count="24" data-date="2018-08-22"/><rect width="10" height="10" x="6" y="52" fill="#7bc96f" class="day" data-count="11" data-date="2018-08-23"/><rect width="10" height="10" x="6" y="65" fill="#239a3b" class="day" data-count="20" data-date="2018-08-24"/><rect width="10" height="10" x="6" y="78" fill="#ebedf0" class="day" data-count="0" data-date="2018-08-25"/></g><g transform="translate(10, 20) translate(126, 0)"><rect width="10" height="10" x="5" y="0" fill="#ebedf0" class="day" data-count="0" data-date="2018-08-26"/><rect width="10" height="10" x="5" y="13" fill="#c6e48b" class="day" data-count="3" data-date="2018-08-27"/><rect width="10" height="10" x="5" y="26" fill="#c6e48b" class="day" data-count="2" data-date="2018-08-28"/><rect width="10" height="10" x="5" y="39" fill="#c6e48b" class="day" data-count="1" data-date="2018-08-29"/><rect width="10" height="10" x="5" y="52" fill="#c6e48b" class="day" data-count="5" data-date="2018-08-30"/><rect width="10" height="10" x="5" y="65" fill="#c6e48b" class="day" data-count="1" data-date="2018-08-31"/><rect width="10" height="10" x="5" y="78" fill="#c6e48b" class="day" data-count="2" data-date="2018-09-01"/></g><g transform="translate(10, 20) translate(140, 0)"><rect width="10" height="10" x="4" y="0" fill="#ebedf0" class="day" data-count="0" data-date="2018-09-02"/><rect width="10" height="10" x="4" y="13" fill="#ebedf0" class="day" data-count="0" data-date="2018-09-03"/><rect width="10" height="10" x="4" y="26" fill="#196127" class="day" data-count="41" data-date="2018-09-04"/><rect width="10" height="10" x="4" y="39" fill="#c6e48b" class="day" data-count="7" data-date="2018-09-05"/><rect width="10" height="10" x="4" y="52" fill="#7bc96f" class="day" data-count="14" data-date="2018-09-06"/><rect width="10" height="10" x="4" y="65" fill="#c6e48b" class="day" data-count="6" data-date="2018-09-07"/><rect width="10" height="10" x="4" y="78" fill="#7bc96f" class="day" data-count="9" data-date="2018-09-08"/></g><g transform="translate(10, 20) translate(154, 0)"><rect width="10" height="10" x="3" y="0" fill="#ebedf0" class="day" data-count="0" data-date="2018-09-09"/><rect width="10" height="10" x="3" y="13" fill="#196127" class="day" data-count="25" data-date="2018-09-10"/><rect width="10" height="10" x="3" y="26" fill="#239a3b" class="day" data-count="17" data-date="2018-09-11"/><rect width="10" height="10" x="3" y="39" fill="#c6e48b" class="day" data-count="2" data-date="2018-09-12"/><rect width="10" height="10" x="3" y="52" fill="#c6e48b" class="day" data-count="4" data-date="2018-09-13"/><rect width="10" height="10" x="3" y="65" fill="#ebedf0" class="day" data-count="0" data-date="2018-09-14"/><rect width="10" height="10" x="3" y="78" fill="#ebedf0" class="day" data-count="0" data-date="2018-09-15"/></g><g transform="translate(10, 20) translate(168, 0)"><rect width="10" height="10" x="2" y="0" fill="#ebedf0" class="day" data-count="0" data-date="2018-09-16"/><rect width="10" height="10" x="2" y="13" fill="#c6e48b" class="day" data-count="1" data-date="2018-09-17"/><rect width="10" height="10" x="2" y="26" fill="#c6e48b" class="day" data-count="2" data-date="2018-09-18"/><rect width="10" height="10" x="2" y="39" fill="#239a3b" class="day" data-count="15" data-date="2018-09-19"/><rect width="10" height="10" x="2" y="52" fill="#7bc96f" class="day" data-count="10" data-date="2018-09-20"/><rect width="10" height="10" x="2" y="65" fill="#196127" class="day" data-count="28" data-date="2018-09-21"/><rect width="10" height="10" x="2" y="78" fill="#ebedf0" class="day" data-count="0" data-date="2018-09-22"/></g><g transform="translate(10, 20) translate(182, 0)"><rect width="10" height="10" x="1" y="0" fill="#7bc96f" class="day" data-count="13" data-date="2018-09-23"/><rect width="10" height="10" x="1" y="13" fill="#c6e48b" class="day" data-count="2" data-date="2018-09-24"/><rect width="10" height="10" x="1" y="26" fill="#c6e48b" class="day" data-count="5" data-date="2018-09-25"/><rect width="10" height="10" x="1" y="39" fill="#ebedf0" class="day" data-count="0" data-date="2018-09-26"/><rect width="10" height="10" x="1" y="52" fill="#ebedf0" class="day" data-count="0" data-date="2018-09-27"/><rect width="10" height="10" x="1" y="65" fill="#c6e48b" class="day" data-count="6" data-date="2018-09-28"/><rect width="10" height="10" x="1" y="78" fill="#ebedf0" class="day" data-count="0" data-date="2018-09-29"/></g><g transform="translate(10, 20) translate(196, 0)"><rect width="10" height="10" x="0" y="0" fill="#c6e48b" class="day" data-count="1" data-date="2018-09-30"/><rect width="10" height="10" x="0" y="13" fill="#ebedf0" class="day" data-count="0" data-date="2018-10-01"/><rect width="10" height="10" x="0" y="26" fill="#c6e48b" class="day" data-count="1" data-date="2018-10-02"/><rect width="10" height="10" x="0" y="39" fill="#c6e48b" class="day" data-count="1" data-date="2018-10-03"/><rect width="10" height="10" x="0" y="52" fill="#7bc96f" class="day" data-count="11" data-date="2018-10-04"/><rect width="10" height="10" x="0" y="65" fill="#ebedf0" class="day" data-count="0" data-date="2018-10-05"/><rect width="10" height="10" x="0" y="78" fill="#ebedf0" class="day" data-count="0" data-date="2018-10-06"/></g><g transform="translate(10, 20) translate(210, 0)"><rect width="10" height="10" x="-1" y="0" fill="#ebedf0" class="day" data-count="0" data-date="2018-10-07"/><rect width="10" height="10" x="-1" y="13" fill="#196127" class="day" data-count="26" data-date="2018-10-08"/><rect width="10" height="10" x="-1" y="26" fill="#239a3b" class="day" data-count="15" data-date="2018-10-09"/><rect width="10" height="10" x="-1" y="39" fill="#239a3b" class="day" data-count="19" data-date="2018-10-10"/><rect width="10" height="10" x="-1" y="52" fill="#c6e48b" class="day" data-count="1" data-date="2018-10-11"/><rect width="10" height="10" x="-1" y="65" fill="#ebedf0" class="day" data-count="0" data-date="2018-10-12"/><rect width="10" height="10" x="-1" y="78" fill="#c6e48b" class="day" data-count="4" data-date="2018-10-13"/></g><g transform="translate(10, 20) translate(224, 0)"><rect width="10" height="10" x="-2" y="0" fill="#ebedf0" class="day" data-count="0" data-date="2018-10-14"/><rect width="10" height="10" x="-2" y="13" fill="#c6e48b" class="day" data-count="1" data-date="2018-10-15"/><rect width="10" height="10" x="-2" y="26" fill="#ebedf0" class="day" data-count="0" data-date="2018-10-16"/><rect width="10" height="10" x="-2" y="39" fill="#c6e48b" class="day" data-count="1" data-date="2018-10-17"/><rect width="10" height="10" x="-2" y="52" fill="#ebedf0" class="day" data-count="0" data-date="2018-10-18"/><rect width="10" height="10" x="-2" y="65" fill="#ebedf0" class="day" data-count="0" data-date="2018-10-19"/><rect width="10" height="10" x="-2" y="78" fill="#ebedf0" class="day" data-count="0" data-date="2018-10-20"/></g><g transform="translate(10, 20) translate(238, 0)"><rect width="10" height="10" x="-3" y="0" fill="#c6e48b" class="day" data-count="1" data-date="2018-10-21"/><rect width="10" height="10" x="-3" y="13" fill="#7bc96f" class="day" data-count="13" data-date="2018-10-22"/><rect width="10" height="10" x="-3" y="26" fill="#ebedf0" class="day" data-count="0" data-date="2018-10-23"/><rect width="10" height="10" x="-3" y="39" fill="#c6e48b" class="day" data-count="2" data-date="2018-10-24"/><rect width="10" height="10" x="-3" y="52" fill="#ebedf0" class="day" data-count="0" data-date="2018-10-25"/><rect width="10" height="10" x="-3" y="65" fill="#ebedf0" class="day" data-count="0" data-date="2018-10-26"/><rect width="10" height="10" x="-3" y="78" fill="#ebedf0" class="day" data-count="0" data-date="2018-10-27"/></g><g transform="translate(10, 20) translate(252, 0)"><rect width="10" height="10" x="-4" y="0" fill="#c6e48b" class="day" data-count="6" data-date="2018-10-28"/><rect width="10" height="10" x="-4" y="13" fill="#c6e48b" class="day" data-count="3" data-date="2018-10-29"/><rect width="10" height="10" x="-4" y="26" fill="#ebedf0" class="day" data-count="0" data-date="2018-10-30"/><rect width="10" height="10" x="-4" y="39" fill="#c6e48b" class="day" data-count="1" data-date="2018-10-31"/><rect width="10" height="10" x="-4" y="52" fill="#c6e48b" class="day" data-count="2" data-date="2018-11-01"/><rect width="10" height="10" x="-4" y="65" fill="#ebedf0" class="day" data-count="0" data-date="2018-11-02"/><rect width="10" height="10" x="-4" y="78" fill="#ebedf0" class="day" data-count="0" data-date="2018-11-03"/></g><g transform="translate(10, 20) translate(266, 0)"><rect width="10" height="10" x="-5" y="0" fill="#ebedf0" class="day" data-count="0" data-date="2018-11-04"/><rect width="10" height="10" x="-5" y="13" fill="#c6e48b" class="day" data-count="1" data-date="2018-11-05"/><rect width="10" height="10" x="-5" y="26" fill="#ebedf0" class="day" data-count="0" data-date="2018-11-06"/><rect width="10" height="10" x="-5" y="39" fill="#ebedf0" class="day" data-count="0" data-date="2018-11-07"/><rect width="10" height="10" x="-5" y="52" fill="#ebedf0" class="day" data-count="0" data-date="2018-11-08"/><rect width="10" height="10" x="-5" y="65" fill="#ebedf0" class="day" data-count="0" data-date="2018-11-09"/><rect width="10" height="10" x="-5" y="78" fill="#ebedf0" class="day" data-count="0" data-date="2018-11-10"/></g><g transform="translate(10, 20) translate(280, 0)"><rect width="10" height="10" x="-6" y="0" fill="#ebedf0" class="day" data-count="0" data-date="2018-11-11"/><rect width="10" height="10" x="-6" y="13" fill="#ebedf0" class="day" data-count="0" data-date="2018-11-12"/><rect width="10" height="10" x="-6" y="26" fill="#ebedf0" class="day" data-count="0" data-date="2018-11-13"/><rect width="10" height="10" x="-6" y="39" fill="#ebedf0" class="day" data-count="0" data-date="2018-11-14"/><rect width="10" height="10" x="-6" y="52" fill="#ebedf0" class="day" data-count="0" data-date="2018-11-15"/><rect width="10" height="10" x="-6" y="65" fill="#ebedf0" class="day" data-count="0" data-date="2018-11-16"/><rect width="10" height="10" x="-6" y="78" fill="#ebedf0" class="day" data-count="0" data-date="2018-11-17"/></g><g transform="translate(10, 20) translate(294, 0)"><rect width="10" height="10" x="-7" y="0" fill="#c6e48b" class="day" data-count="1" data-date="2018-11-18"/><rect width="10" height="10" x="-7" y="13" fill="#ebedf0" class="day" data-count="0" data-date="2018-11-19"/><rect width="10" height="10" x="-7" y="26" fill="#c6e48b" class="day" data-count="1" data-date="2018-11-20"/><rect width="10" height="10" x="-7" y="39" fill="#c6e48b" class="day" data-count="3" data-date="2018-11-21"/><rect width="10" height="10" x="-7" y="52" fill="#ebedf0" class="day" data-count="0" data-date="2018-11-22"/><rect width="10" height="10" x="-7" y="65" fill="#ebedf0" class="day" data-count="0" data-date="2018-11-23"/><rect width="10" height="10" x="-7" y="78" fill="#ebedf0" class="day" data-count="0" data-date="2018-11-24"/></g><g transform="translate(10, 20) translate(308, 0)"><rect width="10" height="10" x="-8" y="0" fill="#ebedf0" class="day" data-count="0" data-date="2018-11-25"/><rect width="10" height="10" x="-8" y="13" fill="#c6e48b" class="day" data-count="3" data-date="2018-11-26"/><rect width="10" height="10" x="-8" y="26" fill="#ebedf0" class="day" data-count="0" data-date="2018-11-27"/><rect width="10" height="10" x="-8" y="39" fill="#ebedf0" class="day" data-count="0" data-date="2018-11-28"/><rect width="10" height="10" x="-8" y="52" fill="#c6e48b" class="day" data-count="3" data-date="2018-11-29"/><rect width="10" height="10" x="-8" y="65" fill="#c6e48b" class="day" data-count="2" data-date="2018-11-30"/><rect width="10" height="10" x="-8" y="78" fill="#ebedf0" class="day" data-count="0" data-date="2018-12-01"/></g><g transform="translate(10, 20) translate(322, 0)"><rect width="10" height="10" x="-9" y="0" fill="#ebedf0" class="day" data-count="0" data-date="2018-12-02"/><rect width="10" height="10" x="-9" y="13" fill="#c6e48b" class="day" data-count="1" data-date="2018-12-03"/><rect width="10" height="10" x="-9" y="26" fill="#c6e48b" class="day" data-count="2" data-date="2018-12-04"/><rect width="10" height="10" x="-9" y="39" fill="#ebedf0" class="day" data-count="0" data-date="2018-12-05"/><rect width="10" height="10" x="-9" y="52" fill="#c6e48b" class="day" data-count="2" data-date="2018-12-06"/><rect width="10" height="10" x="-9" y="65" fill="#c6e48b" class="day" data-count="6" data-date="2018-12-07"/><rect width="10" height="10" x="-9" y="78" fill="#ebedf0" class="day" data-count="0" data-date="2018-12-08"/></g><g transform="translate(10, 20) translate(336, 0)"><rect width="10" height="10" x="-10" y="0" fill="#ebedf0" class="day" data-count="0" data-date="2018-12-09"/><rect width="10" height="10" x="-10" y="13" fill="#c6e48b" class="day" data-count="1" data-date="2018-12-10"/><rect width="10" height="10" x="-10" y="26" fill="#ebedf0" class="day" data-count="0" data-date="2018-12-11"/><rect width="10" height="10" x="-10" y="39" fill="#c6e48b" class="day" data-count="2" data-date="2018-12-12"/><rect width="10" height="10" x="-10" y="52" fill="#ebedf0" class="day" data-count="0" data-date="2018-12-13"/><rect width="10" height="10" x="-10" y="65" fill="#ebedf0" class="day" data-count="0" data-date="2018-12-14"/><rect width="10" height="10" x="-10" y="78" fill="#ebedf0" class="day" data-count="0" data-date="2018-12-15"/></g><g transform="translate(10, 20) translate(350, 0)"><rect width="10" height="10" x="-11" y="0" fill="#ebedf0" class="day" data-count="0" data-date="2018-12-16"/><rect width="10" height="10" x="-11" y="13" fill="#ebedf0" class="day" data-count="0" data-date="2018-12-17"/><rect width="10" height="10" x="-11" y="26" fill="#ebedf0" class="day" data-count="0" data-date="2018-12-18"/><rect width="10" height="10" x="-11" y="39" fill="#c6e48b" class="day" data-count="1" data-date="2018-12-19"/><rect width="10" height="10" x="-11" y="52" fill="#c6e48b" class="day" data-count="1" data-date="2018-12-20"/><rect width="10" height="10" x="-11" y="65" fill="#c6e48b" class="day" data-count="1" data-date="2018-12-21"/><rect width="10" height="10" x="-11" y="78" fill="#ebedf0" class="day" data-count="0" data-date="2018-12-22"/></g><g transform="translate(10, 20) translate(364, 0)"><rect width="10" height="10" x="-12" y="0" fill="#ebedf0" class="day" data-count="0" data-date="2018-12-23"/><rect width="10" height="10" x="-12" y="13" fill="#ebedf0" class="day" data-count="0" data-date="2018-12-24"/><rect width="10" height="10" x="-12" y="26" fill="#ebedf0" class="day" data-count="0" data-date="2018-12-25"/><rect width="10" height="10" x="-12" y="39" fill="#ebedf0" class="day" data-count="0" data-date="2018-12-26"/><rect width="10" height="10" x="-12" y="52" fill="#ebedf0" class="day" data-count="0" data-date="2018-12-27"/><rect width="10" height="10" x="-12" y="65" fill="#7bc96f" class="day" data-count="13" data-date="2018-12-28"/><rect width="10" height="10" x="-12" y="78" fill="#ebedf0" class="day" data-count="0" data-date="2018-12-29"/></g><g transform="translate(10, 20) translate(378, 0)"><rect width="10" height="10" x="-13" y="0" fill="#ebedf0" class="day" data-count="0" data-date="2018-12-30"/><rect width="10" height="10" x="-13" y="13" fill="#ebedf0" class="day" data-count="0" data-date="2018-12-31"/><rect width="10" height="10" x="-13" y="26" fill="#c6e48b" class="day" data-count="2" data-date="2019-01-01"/><rect width="10" height="10" x="-13" y="39" fill="#c6e48b" class="day" data-count="7" data-date="2019-01-02"/><rect width="10" height="10" x="-13" y="52" fill="#ebedf0" class="day" data-count="0" data-date="2019-01-03"/><rect width="10" height="10" x="-13" y="65" fill="#ebedf0" class="day" data-count="0" data-date="2019-01-04"/><rect width="10" height="10" x="-13" y="78" fill="#ebedf0" class="day" data-count="0" data-date="2019-01-05"/></g><g transform="translate(10, 20) translate(392, 0)"><rect width="10" height="10" x="-14" y="0" fill="#ebedf0" class="day" data-count="0" data-date="2019-01-06"/><rect width="10" height="10" x="-14" y="13" fill="#c6e48b" class="day" data-count="1" data-date="2019-01-07"/><rect width="10" height="10" x="-14" y="26" fill="#ebedf0" class="day" data-count="0" data-date="2019-01-08"/><rect width="10" height="10" x="-14" y="39" fill="#ebedf0" class="day" data-count="0" data-date="2019-01-09"/><rect width="10" height="10" x="-14" y="52" fill="#ebedf0" class="day" data-count="0" data-date="2019-01-10"/><rect width="10" height="10" x="-14" y="65" fill="#c6e48b" class="day" data-count="3" data-date="2019-01-11"/><rect width="10" height="10" x="-14" y="78" fill="#c6e48b" class="day" data-count="2" data-date="2019-01-12"/></g><g transform="translate(10, 20) translate(406, 0)"><rect width="10" height="10" x="-15" y="0" fill="#ebedf0" class="day" data-count="0" data-date="2019-01-13"/><rect width="10" height="10" x="-15" y="13" fill="#ebedf0" class="day" data-count="0" data-date="2019-01-14"/><rect width="10" height="10" x="-15" y="26" fill="#ebedf0" class="day" data-count="0" data-date="2019-01-15"/><rect width="10" height="10" x="-15" y="39" fill="#ebedf0" class="day" data-count="0" data-date="2019-01-16"/><rect width="10" height="10" x="-15" y="52" fill="#c6e48b" class="day" data-count="3" data-date="2019-01-17"/><rect width="10" height="10" x="-15" y="65" fill="#ebedf0" class="day" data-count="0" data-date="2019-01-18"/><rect width="10" height="10" x="-15" y="78" fill="#ebedf0" class="day" data-count="0" data-date="2019-01-19"/></g><g transform="translate(10, 20) translate(420, 0)"><rect width="10" height="10" x="-16" y="0" fill="#ebedf0" class="day" data-count="0" data-date="2019-01-20"/><rect width="10" height="10" x="-16" y="13" fill="#ebedf0" class="day" data-count="0" data-date="2019-01-21"/><rect width="10" height="10" x="-16" y="26" fill="#c6e48b" class="day" data-count="1" data-date="2019-01-22"/><rect width="10" height="10" x="-16" y="39" fill="#ebedf0" class="day" data-count="0" data-date="2019-01-23"/><rect width="10" height="10" x="-16" y="52" fill="#ebedf0" class="day" data-count="0" data-date="2019-01-24"/><rect width="10" height="10" x="-16" y="65" fill="#c6e48b" class="day" data-count="1" data-date="2019-01-25"/><rect width="10" height="10" x="-16" y="78" fill="#ebedf0" class="day" data-count="0" data-date="2019-01-26"/></g><g transform="translate(10, 20) translate(434, 0)"><rect width="10" height="10" x="-17" y="0" fill="#ebedf0" class="day" data-count="0" data-date="2019-01-27"/><rect width="10" height="10" x="-17" y="13" fill="#ebedf0" class="day" data-count="0" data-date="2019-01-28"/><rect width="10" height="10" x="-17" y="26" fill="#ebedf0" class="day" data-count="0" data-date="2019-01-29"/><rect width="10" height="10" x="-17" y="39" fill="#ebedf0" class="day" data-count="0" data-date="2019-01-30"/><rect width="10" height="10" x="-17" y="52" fill="#ebedf0" class="day" data-count="0" data-date="2019-01-31"/><rect width="10" height="10" x="-17" y="65" fill="#ebedf0" class="day" data-count="0" data-date="2019-02-01"/><rect width="10" height="10" x="-17" y="78" fill="#ebedf0" class="day" data-count="0" data-date="2019-02-02"/></g><g transform="translate(10, 20) translate(448, 0)"><rect width="10" height="10" x="-18" y="0" fill="#ebedf0" class="day" data-count="0" data-date="2019-02-03"/><rect width="10" height="10" x="-18" y="13" fill="#ebedf0" class="day" data-count="0" data-date="2019-02-04"/><rect width="10" height="10" x="-18" y="26" fill="#ebedf0" class="day" data-count="0" data-date="2019-02-05"/><rect width="10" height="10" x="-18" y="39" fill="#ebedf0" class="day" data-count="0" data-date="2019-02-06"/><rect width="10" height="10" x="-18" y="52" fill="#ebedf0" class="day" data-count="0" data-date="2019-02-07"/><rect width="10" height="10" x="-18" y="65" fill="#ebedf0" class="day" data-count="0" data-date="2019-02-08"/><rect width="10" height="10" x="-18" y="78" fill="#ebedf0" class="day" data-count="0" data-date="2019-02-09"/></g><g transform="translate(10, 20) translate(462, 0)"><rect width="10" height="10" x="-19" y="0" fill="#c6e48b" class="day" data-count="3" data-date="2019-02-10"/><rect width="10" height="10" x="-19" y="13" fill="#c6e48b" class="day" data-count="3" data-date="2019-02-11"/><rect width="10" height="10" x="-19" y="26" fill="#ebedf0" class="day" data-count="0" data-date="2019-02-12"/><rect width="10" height="10" x="-19" y="39" fill="#c6e48b" class="day" data-count="1" data-date="2019-02-13"/><rect width="10" height="10" x="-19" y="52" fill="#ebedf0" class="day" data-count="0" data-date="2019-02-14"/><rect width="10" height="10" x="-19" y="65" fill="#c6e48b" class="day" data-count="1" data-date="2019-02-15"/><rect width="10" height="10" x="-19" y="78" fill="#c6e48b" class="day" data-count="6" data-date="2019-02-16"/></g><g transform="translate(10, 20) translate(476, 0)"><rect width="10" height="10" x="-20" y="0" fill="#ebedf0" class="day" data-count="0" data-date="2019-02-17"/><rect width="10" height="10" x="-20" y="13" fill="#ebedf0" class="day" data-count="0" data-date="2019-02-18"/><rect width="10" height="10" x="-20" y="26" fill="#c6e48b" class="day" data-count="2" data-date="2019-02-19"/><rect width="10" height="10" x="-20" y="39" fill="#c6e48b" class="day" data-count="1" data-date="2019-02-20"/><rect width="10" height="10" x="-20" y="52" fill="#c6e48b" class="day" data-count="4" data-date="2019-02-21"/><rect width="10" height="10" x="-20" y="65" fill="#196127" class="day" data-count="22" data-date="2019-02-22"/><rect width="10" height="10" x="-20" y="78" fill="#239a3b" class="day" data-count="16" data-date="2019-02-23"/></g><g transform="translate(10, 20) translate(490, 0)"><rect width="10" height="10" x="-21" y="0" fill="#ebedf0" class="day" data-count="0" data-date="2019-02-24"/><rect width="10" height="10" x="-21" y="13" fill="#c6e48b" class="day" data-count="4" data-date="2019-02-25"/><rect width="10" height="10" x="-21" y="26" fill="#ebedf0" class="day" data-count="0" data-date="2019-02-26"/><rect width="10" height="10" x="-21" y="39" fill="#c6e48b" class="day" data-count="2" data-date="2019-02-27"/><rect width="10" height="10" x="-21" y="52" fill="#c6e48b" class="day" data-count="1" data-date="2019-02-28"/><rect width="10" height="10" x="-21" y="65" fill="#c6e48b" class="day" data-count="2" data-date="2019-03-01"/><rect width="10" height="10" x="-21" y="78" fill="#c6e48b" class="day" data-count="2" data-date="2019-03-02"/></g><g transform="translate(10, 20) translate(504, 0)"><rect width="10" height="10" x="-22" y="0" fill="#c6e48b" class="day" data-count="1" data-date="2019-03-03"/><rect width="10" height="10" x="-22" y="13" fill="#c6e48b" class="day" data-count="2" data-date="2019-03-04"/><rect width="10" height="10" x="-22" y="26" fill="#7bc96f" class="day" data-count="11" data-date="2019-03-05"/><rect width="10" height="10" x="-22" y="39" fill="#c6e48b" class="day" data-count="6" data-date="2019-03-06"/><rect width="10" height="10" x="-22" y="52" fill="#c6e48b" class="day" data-count="4" data-date="2019-03-07"/><rect width="10" height="10" x="-22" y="65" fill="#7bc96f" class="day" data-count="8" data-date="2019-03-08"/><rect width="10" height="10" x="-22" y="78" fill="#7bc96f" class="day" data-count="9" data-date="2019-03-09"/></g><g transform="translate(10, 20) translate(518, 0)"><rect width="10" height="10" x="-23" y="0" fill="#ebedf0" class="day" data-count="0" data-date="2019-03-10"/><rect width="10" height="10" x="-23" y="13" fill="#c6e48b" class="day" data-count="1" data-date="2019-03-11"/><rect width="10" height="10" x="-23" y="26" fill="#196127" class="day" data-count="24" data-date="2019-03-12"/><rect width="10" height="10" x="-23" y="39" fill="#7bc96f" class="day" data-count="10" data-date="2019-03-13"/><rect width="10" height="10" x="-23" y="52" fill="#7bc96f" class="day" data-count="8" data-date="2019-03-14"/><rect width="10" height="10" x="-23" y="65" fill="#c6e48b" class="day" data-count="6" data-date="2019-03-15"/><rect width="10" height="10" x="-23" y="78" fill="#c6e48b" class="day" data-count="3" data-date="2019-03-16"/></g><g transform="translate(10, 20) translate(532, 0)"><rect width="10" height="10" x="-24" y="0" fill="#ebedf0" class="day" data-count="0" data-date="2019-03-17"/><rect width="10" height="10" x="-24" y="13" fill="#c6e48b" class="day" data-count="1" data-date="2019-03-18"/><rect width="10" height="10" x="-24" y="26" fill="#c6e48b" class="day" data-count="4" data-date="2019-03-19"/><rect width="10" height="10" x="-24" y="39" fill="#ebedf0" class="day" data-count="0" data-date="2019-03-20"/><rect width="10" height="10" x="-24" y="52" fill="#ebedf0" class="day" data-count="0" data-date="2019-03-21"/><rect width="10" height="10" x="-24" y="65" fill="#c6e48b" class="day" data-count="7" data-date="2019-03-22"/><rect width="10" height="10" x="-24" y="78" fill="#ebedf0" class="day" data-count="0" data-date="2019-03-23"/></g><g transform="translate(10, 20) translate(546, 0)"><rect width="10" height="10" x="-25" y="0" fill="#c6e48b" class="day" data-count="2" data-date="2019-03-24"/><rect width="10" height="10" x="-25" y="13" fill="#c6e48b" class="day" data-count="1" data-date="2019-03-25"/><rect width="10" height="10" x="-25" y="26" fill="#ebedf0" class="day" data-count="0" data-date="2019-03-26"/><rect width="10" height="10" x="-25" y="39" fill="#c6e48b" class="day" data-count="3" data-date="2019-03-27"/><rect width="10" height="10" x="-25" y="52" fill="#c6e48b" class="day" data-count="1" data-date="2019-03-28"/><rect width="10" height="10" x="-25" y="65" fill="#c6e48b" class="day" data-count="6" data-date="2019-03-29"/><rect width="10" height="10" x="-25" y="78" fill="#ebedf0" class="day" data-count="0" data-date="2019-03-30"/></g><g transform="translate(10, 20) translate(560, 0)"><rect width="10" height="10" x="-26" y="0" fill="#ebedf0" class="day" data-count="0" data-date="2019-03-31"/><rect width="10" height="10" x="-26" y="13" fill="#ebedf0" class="day" data-count="0" data-date="2019-04-01"/><rect width="10" height="10" x="-26" y="26" fill="#c6e48b" class="day" data-count="1" data-date="2019-04-02"/><rect width="10" height="10" x="-26" y="39" fill="#c6e48b" class="day" data-count="7" data-date="2019-04-03"/><rect width="10" height="10" x="-26" y="52" fill="#c6e48b" class="day" data-count="2" data-date="2019-04-04"/><rect width="10" height="10" x="-26" y="65" fill="#c6e48b" class="day" data-count="2" data-date="2019-04-05"/><rect width="10" height="10" x="-26" y="78" fill="#ebedf0" class="day" data-count="0" data-date="2019-04-06"/></g><g transform="translate(10, 20) translate(574, 0)"><rect width="10" height="10" x="-27" y="0" fill="#c6e48b" class="day" data-count="1" data-date="2019-04-07"/><rect width="10" height="10" x="-27" y="13" fill="#c6e48b" class="day" data-count="4" data-date="2019-04-08"/><rect width="10" height="10" x="-27" y="26" fill="#c6e48b" class="day" data-count="3" data-date="2019-04-09"/><rect width="10" height="10" x="-27" y="39" fill="#ebedf0" class="day" data-count="0" data-date="2019-04-10"/><rect width="10" height="10" x="-27" y="52" fill="#c6e48b" class="day" data-count="1" data-date="2019-04-11"/><rect width="10" height="10" x="-27" y="65" fill="#c6e48b" class="day" data-count="2" data-date="2019-04-12"/><rect width="10" height="10" x="-27" y="78" fill="#c6e48b" class="day" data-count="3" data-date="2019-04-13"/></g><g transform="translate(10, 20) translate(588, 0)"><rect width="10" height="10" x="-28" y="0" fill="#ebedf0" class="day" data-count="0" data-date="2019-04-14"/><rect width="10" height="10" x="-28" y="13" fill="#c6e48b" class="day" data-count="2" data-date="2019-04-15"/><rect width="10" height="10" x="-28" y="26" fill="#c6e48b" class="day" data-count="1" data-date="2019-04-16"/><rect width="10" height="10" x="-28" y="39" fill="#c6e48b" class="day" data-count="1" data-date="2019-04-17"/><rect width="10" height="10" x="-28" y="52" fill="#c6e48b" class="day" data-count="5" data-date="2019-04-18"/><rect width="10" height="10" x="-28" y="65" fill="#7bc96f" class="day" data-count="14" data-date="2019-04-19"/><rect width="10" height="10" x="-28" y="78" fill="#ebedf0" class="day" data-count="0" data-date="2019-04-20"/></g><g transform="translate(10, 20) translate(602, 0)"><rect width="10" height="10" x="-29" y="0" fill="#ebedf0" class="day" data-count="0" data-date="2019-04-21"/><rect width="10" height="10" x="-29" y="13" fill="#c6e48b" class="day" data-count="5" data-date="2019-04-22"/><rect width="10" height="10" x="-29" y="26" fill="#ebedf0" class="day" data-count="0" data-date="2019-04-23"/><rect width="10" height="10" x="-29" y="39" fill="#c6e48b" class="day" data-count="1" data-date="2019-04-24"/><rect width="10" height="10" x="-29" y="52" fill="#c6e48b" class="day" data-count="3" data-date="2019-04-25"/><rect width="10" height="10" x="-29" y="65" fill="#ebedf0" class="day" data-count="0" data-date="2019-04-26"/><rect width="10" height="10" x="-29" y="78" fill="#ebedf0" class="day" data-count="0" data-date="2019-04-27"/></g><g transform="translate(10, 20) translate(616, 0)"><rect width="10" height="10" x="-30" y="0" fill="#ebedf0" class="day" data-count="0" data-date="2019-04-28"/><rect width="10" height="10" x="-30" y="13" fill="#ebedf0" class="day" data-count="0" data-date="2019-04-29"/><rect width="10" height="10" x="-30" y="26" fill="#c6e48b" class="day" data-count="1" data-date="2019-04-30"/><rect width="10" height="10" x="-30" y="39" fill="#ebedf0" class="day" data-count="0" data-date="2019-05-01"/><rect width="10" height="10" x="-30" y="52" fill="#ebedf0" class="day" data-count="0" data-date="2019-05-02"/><rect width="10" height="10" x="-30" y="65" fill="#7bc96f" class="day" data-count="8" data-date="2019-05-03"/><rect width="10" height="10" x="-30" y="78" fill="#ebedf0" class="day" data-count="0" data-date="2019-05-04"/></g><g transform="translate(10, 20) translate(630, 0)"><rect width="10" height="10" x="-31" y="0" fill="#ebedf0" class="day" data-count="0" data-date="2019-05-05"/><rect width="10" height="10" x="-31" y="13" fill="#7bc96f" class="day" data-count="9" data-date="2019-05-06"/><rect width="10" height="10" x="-31" y="26" fill="#c6e48b" class="day" data-count="3" data-date="2019-05-07"/><rect width="10" height="10" x="-31" y="39" fill="#7bc96f" class="day" data-count="10" data-date="2019-05-08"/><rect width="10" height="10" x="-31" y="52" fill="#c6e48b" class="day" data-count="2" data-date="2019-05-09"/><rect width="10" height="10" x="-31" y="65" fill="#ebedf0" class="day" data-count="0" data-date="2019-05-10"/><rect width="10" height="10" x="-31" y="78" fill="#ebedf0" class="day" data-count="0" data-date="2019-05-11"/></g><g transform="translate(10, 20) translate(644, 0)"><rect width="10" height="10" x="-32" y="0" fill="#c6e48b" class="day" data-count="3" data-date="2019-05-12"/><rect width="10" height="10" x="-32" y="13" fill="#ebedf0" class="day" data-count="0" data-date="2019-05-13"/><rect width="10" height="10" x="-32" y="26" fill="#c6e48b" class="day" data-count="3" data-date="2019-05-14"/><rect width="10" height="10" x="-32" y="39" fill="#ebedf0" class="day" data-count="0" data-date="2019-05-15"/><rect width="10" height="10" x="-32" y="52" fill="#c6e48b" class="day" data-count="2" data-date="2019-05-16"/><rect width="10" height="10" x="-32" y="65" fill="#c6e48b" class="day" data-count="2" data-date="2019-05-17"/><rect width="10" height="10" x="-32" y="78" fill="#ebedf0" class="day" data-count="0" data-date="2019-05-18"/></g><g transform="translate(10, 20) translate(658, 0)"><rect width="10" height="10" x="-33" y="0" fill="#c6e48b" class="day" data-count="4" data-date="2019-05-19"/><rect width="10" height="10" x="-33" y="13" fill="#c6e48b" class="day" data-count="2" data-date="2019-05-20"/><rect width="10" height="10" x="-33" y="26" fill="#c6e48b" class="day" data-count="4" data-date="2019-05-21"/><rect width="10" height="10" x="-33" y="39" fill="#c6e48b" class="day" data-count="3" data-date="2019-05-22"/><rect width="10" height="10" x="-33" y="52" fill="#c6e48b" class="day" data-count="4" data-date="2019-05-23"/><rect width="10" height="10" x="-33" y="65" fill="#c6e48b" class="day" data-count="1" data-date="2019-05-24"/><rect width="10" height="10" x="-33" y="78" fill="#ebedf0" class="day" data-count="0" data-date="2019-05-25"/></g><g transform="translate(10, 20) translate(672, 0)"><rect width="10" height="10" x="-34" y="0" fill="#ebedf0" class="day" data-count="0" data-date="2019-05-26"/><rect width="10" height="10" x="-34" y="13" fill="#ebedf0" class="day" data-count="0" data-date="2019-05-27"/><rect width="10" height="10" x="-34" y="26" fill="#c6e48b" class="day" data-count="2" data-date="2019-05-28"/><rect width="10" height="10" x="-34" y="39" fill="#ebedf0" class="day" data-count="0" data-date="2019-05-29"/><rect width="10" height="10" x="-34" y="52" fill="#ebedf0" class="day" data-count="0" data-date="2019-05-30"/><rect width="10" height="10" x="-34" y="65" fill="#ebedf0" class="day" data-count="0" data-date="2019-05-31"/><rect width="10" height="10" x="-34" y="78" fill="#ebedf0" class="day" data-count="0" data-date="2019-06-01"/></g><g transform="translate(10, 20) translate(686, 0)"><rect width="10" height="10" x="-35" y="0" fill="#c6e48b" class="day" data-count="3" data-date="2019-06-02"/><rect width="10" height="10" x="-35" y="13" fill="#c6e48b" class="day" data-count="3" data-date="2019-06-03"/><rect width="10" height="10" x="-35" y="26" fill="#7bc96f" class="day" data-count="12" data-date="2019-06-04"/><rect width="10" height="10" x="-35" y="39" fill="#c6e48b" class="day" data-count="1" data-date="2019-06-05"/><rect width="10" height="10" x="-35" y="52" fill="#ebedf0" class="day" data-count="0" data-date="2019-06-06"/><rect width="10" height="10" x="-35" y="65" fill="#ebedf0" class="day" data-count="0" data-date="2019-06-07"/><rect width="10" height="10" x="-35" y="78" fill="#ebedf0" class="day" data-count="0" data-date="2019-06-08"/></g><g transform="translate(10, 20) translate(700, 0)"><rect width="10" height="10" x="-36" y="0" fill="#ebedf0" class="day" data-count="0" data-date="2019-06-09"/><rect width="10" height="10" x="-36" y="13" fill="#c6e48b" class="day" data-count="1" data-date="2019-06-10"/><rect width="10" height="10" x="-36" y="26" fill="#ebedf0" class="day" data-count="0" data-date="2019-06-11"/><rect width="10" height="10" x="-36" y="39" fill="#ebedf0" class="day" data-count="0" data-date="2019-06-12"/><rect width="10" height="10" x="-36" y="52" fill="#ebedf0" class="day" data-count="0" data-date="2019-06-13"/><rect width="10" height="10" x="-36" y="65" fill="#c6e48b" class="day" data-count="1" data-date="2019-06-14"/><rect width="10" height="10" x="-36" y="78" fill="#ebedf0" class="day" data-count="0" data-date="2019-06-15"/></g><g transform="translate(10, 20) translate(714, 0)"><rect width="10" height="10" x="-37" y="0" fill="#c6e48b" class="day" data-count="1" data-date="2019-06-16"/><rect width="10" height="10" x="-37" y="13" fill="#ebedf0" class="day" data-count="0" data-date="2019-06-17"/><rect width="10" height="10" x="-37" y="26" fill="#c6e48b" class="day" data-count="1" data-date="2019-06-18"/><rect width="10" height="10" x="-37" y="39" fill="#ebedf0" class="day" data-count="0" data-date="2019-06-19"/><rect width="10" height="10" x="-37" y="52" fill="#ebedf0" class="day" data-count="0" data-date="2019-06-20"/><rect width="10" height="10" x="-37" y="65" fill="#c6e48b" class="day" data-count="2" data-date="2019-06-21"/><rect width="10" height="10" x="-37" y="78" fill="#c6e48b" class="day" data-count="4" data-date="2019-06-22"/></g><g transform="translate(10, 20) translate(728, 0)"><rect width="10" height="10" x="-38" y="0" fill="#ebedf0" class="day" data-count="0" data-date="2019-06-23"/></g><text x="27" y="-7" class="month" transform="translate(10, 20)">Jul</text><text x="92" y="-7" class="month" transform="translate(10, 20)">Aug</text><text x="144" y="-7" class="month" transform="translate(10, 20)">Sep</text><text x="209" y="-7" class="month" transform="translate(10, 20)">Oct</text><text x="261" y="-7" class="month" transform="translate(10, 20)">Nov</text><text x="313" y="-7" class="month" transform="translate(10, 20)">Dec</text><text x="378" y="-7" class="month" transform="translate(10, 20)">Jan</text><text x="430" y="-7" class="month" transform="translate(10, 20)">Feb</text><text x="482" y="-7" class="month" transform="translate(10, 20)">Mar</text><text x="547" y="-7" class="month" transform="translate(10, 20)">Apr</text><text x="599" y="-7" class="month" transform="translate(10, 20)">May</text><text x="651" y="-7" class="month" transform="translate(10, 20)">Jun</text><text class="wday" dx="-10" dy="8" text-anchor="start" style="display:none" transform="translate(10, 20)">Sun</text><text class="wday" dx="-10" dy="22" text-anchor="start" transform="translate(10, 20)">Mon</text><text class="wday" dx="-10" dy="32" text-anchor="start" style="display:none" transform="translate(10, 20)">Tue</text><text class="wday" dx="-10" dy="48" text-anchor="start" transform="translate(10, 20)">Wed</text><text class="wday" dx="-10" dy="57" text-anchor="start" style="display:none" transform="translate(10, 20)">Thu</text><text class="wday" dx="-10" dy="73" text-anchor="start" transform="translate(10, 20)">Fri</text><text class="wday" dx="-10" dy="81" text-anchor="start" style="display:none" transform="translate(10, 20)">Sat</text></g></svg>